<svg width="1600" height="900" viewBox="0 0 1600 900" fill="none" xmlns="http://www.w3.org/2000/svg" role="img" aria-labelledby="title desc">
  <title id="title">Ralph orchestration concept art</title>
  <desc id="desc">A cinematic command room concept image showing Codex directing Claude Code workers through a verified Ralph runtime loop.</desc>
  <defs>
    <radialGradient id="bgGlow" cx="50%" cy="42%" r="65%">
      <stop offset="0" stop-color="#1D4DFF" stop-opacity="0.36"/>
      <stop offset="0.46" stop-color="#0B162E" stop-opacity="0.94"/>
      <stop offset="1" stop-color="#05070D"/>
    </radialGradient>
    <linearGradient id="glass" x1="210" y1="110" x2="1390" y2="790" gradientUnits="userSpaceOnUse">
      <stop stop-color="#182844" stop-opacity="0.88"/>
      <stop offset="1" stop-color="#070B14" stop-opacity="0.92"/>
    </linearGradient>
    <linearGradient id="premium" x1="0" y1="0" x2="1" y2="1">
      <stop stop-color="#9BE7FF"/>
      <stop offset="1" stop-color="#7C5CFF"/>
    </linearGradient>
    <linearGradient id="worker" x1="0" y1="0" x2="1" y2="1">
      <stop stop-color="#7EF0C1"/>
      <stop offset="1" stop-color="#1BAA8B"/>
    </linearGradient>
    <linearGradient id="verify" x1="0" y1="0" x2="1" y2="1">
      <stop stop-color="#FFE08A"/>
      <stop offset="1" stop-color="#F59E0B"/>
    </linearGradient>
    <filter id="softShadow" x="-20%" y="-20%" width="140%" height="140%">
      <feDropShadow dx="0" dy="24" stdDeviation="28" flood-color="#000000" flood-opacity="0.42"/>
    </filter>
    <filter id="glow" x="-60%" y="-60%" width="220%" height="220%">
      <feGaussianBlur stdDeviation="12" result="blur"/>
      <feColorMatrix in="blur" type="matrix" values="0 0 0 0 0.35 0 0 0 0 0.78 0 0 0 0 1 0 0 0 0.8 0"/>
      <feBlend in="SourceGraphic"/>
    </filter>
  </defs>

  <rect width="1600" height="900" rx="38" fill="url(#bgGlow)"/>
  <path d="M0 770C240 666 436 686 632 734C890 797 1104 806 1600 674V900H0V770Z" fill="#02040A" opacity="0.72"/>
  <g opacity="0.18">
    <path d="M170 120H1430M170 210H1430M170 300H1430M170 390H1430M170 480H1430M170 570H1430M170 660H1430" stroke="#9AB6FF"/>
    <path d="M230 80V710M390 80V710M550 80V710M710 80V710M870 80V710M1030 80V710M1190 80V710M1350 80V710" stroke="#9AB6FF"/>
  </g>

  <g filter="url(#softShadow)">
    <rect x="160" y="86" width="1280" height="690" rx="42" fill="url(#glass)" stroke="#A7C7FF" stroke-opacity="0.22" stroke-width="2"/>
    <rect x="198" y="126" width="1204" height="7" rx="3.5" fill="url(#premium)"/>
  </g>

  <text x="228" y="220" fill="#F8FBFF" font-family="Inter, SF Pro Display, Arial, sans-serif" font-size="78" font-weight="800" letter-spacing="-2.4">Ralph for Codex</text>
  <text x="232" y="274" fill="#B9C7DC" font-family="Inter, SF Pro Text, Arial, sans-serif" font-size="28" font-weight="500">premium planning, cheap execution, deterministic verification</text>

  <g transform="translate(635 325)" filter="url(#glow)">
    <circle cx="165" cy="165" r="132" fill="#0E1A2D" stroke="#7FD8FF" stroke-width="4"/>
    <circle cx="165" cy="165" r="84" fill="#132946" stroke="#9BE7FF" stroke-opacity="0.78" stroke-width="3"/>
    <path d="M113 170C143 111 187 111 217 170C188 226 143 226 113 170Z" fill="#7FD8FF" fill-opacity="0.18" stroke="#AEEBFF" stroke-width="4"/>
    <circle cx="165" cy="170" r="25" fill="#E8F7FF"/>
    <text x="74" y="342" fill="#EAF7FF" font-family="Inter, Arial, sans-serif" font-size="34" font-weight="800">ORCHESTRATOR</text>
  </g>

  <g>
    <path d="M430 432C520 385 598 381 680 430" stroke="#7FD8FF" stroke-width="6" stroke-linecap="round" stroke-dasharray="14 16"/>
    <path d="M920 430C1008 380 1084 386 1188 430" stroke="#7EF0C1" stroke-width="6" stroke-linecap="round" stroke-dasharray="14 16"/>
    <path d="M800 616C768 680 662 710 530 658" stroke="#FFE08A" stroke-width="6" stroke-linecap="round" stroke-dasharray="14 16"/>
    <path d="M800 616C838 682 951 708 1086 656" stroke="#FFE08A" stroke-width="6" stroke-linecap="round" stroke-dasharray="14 16"/>
  </g>

  <g transform="translate(238 362)">
    <rect width="282" height="166" rx="26" fill="#0C1830" stroke="#85DFFF" stroke-opacity="0.75" stroke-width="2"/>
    <circle cx="58" cy="58" r="27" fill="url(#premium)"/>
    <path d="M48 60L57 69L72 48" stroke="#06101F" stroke-width="5" stroke-linecap="round" stroke-linejoin="round"/>
    <text x="100" y="58" fill="#9BE7FF" font-family="Inter, Arial, sans-serif" font-size="18" font-weight="800">CODEX</text>
    <text x="100" y="94" fill="#FFFFFF" font-family="Inter, Arial, sans-serif" font-size="30" font-weight="800">Planner</text>
    <text x="34" y="136" fill="#AFC1D7" font-family="Inter, Arial, sans-serif" font-size="19">slice stories + design gates</text>
  </g>

  <g transform="translate(1080 362)">
    <rect width="282" height="166" rx="26" fill="#092417" stroke="#7EF0C1" stroke-opacity="0.75" stroke-width="2"/>
    <circle cx="58" cy="58" r="27" fill="url(#worker)"/>
    <path d="M44 63C60 42 78 50 68 72C58 96 35 85 44 63Z" fill="#03120B"/>
    <text x="100" y="58" fill="#91F5D0" font-family="Inter, Arial, sans-serif" font-size="18" font-weight="800">WORKERS</text>
    <text x="100" y="94" fill="#FFFFFF" font-family="Inter, Arial, sans-serif" font-size="30" font-weight="800">Claude Code</text>
    <text x="34" y="136" fill="#BCEAD8" font-family="Inter, Arial, sans-serif" font-size="19">bulk implementation lane</text>
  </g>

  <g transform="translate(394 622)">
    <rect width="308" height="108" rx="24" fill="#231A08" stroke="#FFE08A" stroke-opacity="0.78" stroke-width="2"/>
    <text x="34" y="46" fill="#FFE08A" font-family="Inter, Arial, sans-serif" font-size="18" font-weight="800">VERIFY</text>
    <text x="34" y="81" fill="#FFFFFF" font-family="Inter, Arial, sans-serif" font-size="29" font-weight="800">Tests + Playwright</text>
  </g>

  <g transform="translate(898 622)">
    <rect width="308" height="108" rx="24" fill="#121827" stroke="#D6E2FF" stroke-opacity="0.42" stroke-width="2"/>
    <text x="34" y="46" fill="#C9D8F2" font-family="Inter, Arial, sans-serif" font-size="18" font-weight="800">STATE</text>
    <text x="34" y="81" fill="#FFFFFF" font-family="Inter, Arial, sans-serif" font-size="29" font-weight="800">progress + evidence</text>
  </g>

  <g opacity="0.95">
    <rect x="228" y="800" width="1144" height="46" rx="23" fill="#030611" stroke="#5670A6" stroke-opacity="0.32"/>
    <text x="276" y="831" fill="#D7E5FF" font-family="SF Mono, Menlo, Consolas, monospace" font-size="20">ralph.sh  →  prompt.md  →  prd.json  →  .codex-ralph/runs  →  progress.txt</text>
  </g>
</svg>