<svg width="1600" height="900" viewBox="0 0 1600 900" fill="none" xmlns="http://www.w3.org/2000/svg" role="img" aria-labelledby="title desc">
  <title id="title">Codex Claude Ralph command loop</title>
  <desc id="desc">A bold editorial hero showing Codex as visible command, Ralph as runtime rail, Claude as terminal worker, and Playwright as evidence.</desc>
  <defs>
    <linearGradient id="bg" x1="0" y1="0" x2="1600" y2="900" gradientUnits="userSpaceOnUse">
      <stop stop-color="#101820"/>
      <stop offset="0.52" stop-color="#162D34"/>
      <stop offset="1" stop-color="#27381E"/>
    </linearGradient>
    <linearGradient id="ribbon" x1="180" y1="108" x2="1420" y2="780" gradientUnits="userSpaceOnUse">
      <stop stop-color="#FF734D"/>
      <stop offset="0.42" stop-color="#F7CB5D"/>
      <stop offset="0.72" stop-color="#32BBA4"/>
      <stop offset="1" stop-color="#6697FF"/>
    </linearGradient>
    <filter id="cardShadow" x="0" y="0" width="1600" height="900" filterUnits="userSpaceOnUse" color-interpolation-filters="sRGB">
      <feDropShadow dx="0" dy="28" stdDeviation="30" flood-color="#03060A" flood-opacity="0.34"/>
    </filter>
  </defs>
  <rect width="1600" height="900" rx="42" fill="url(#bg)"/>
  <path d="M0 697C194 633 382 661 566 725C798 806 1035 799 1252 674C1408 584 1538 592 1600 624V900H0V697Z" fill="#070A0E" fill-opacity="0.3"/>
  <circle cx="1310" cy="154" r="210" fill="#F7CB5D" fill-opacity="0.08"/>
  <circle cx="216" cy="714" r="260" fill="#32BBA4" fill-opacity="0.08"/>
  <g filter="url(#cardShadow)">
    <rect x="152" y="96" width="1296" height="708" rx="34" fill="#F8F0DF"/>
  </g>
  <path d="M214 180H1386" stroke="url(#ribbon)" stroke-width="10" stroke-linecap="round"/>
  <text x="214" y="282" fill="#111827" font-family="Georgia, 'Times New Roman', serif" font-size="78" font-weight="700">Codex commands.</text>
  <text x="214" y="362" fill="#111827" font-family="Georgia, 'Times New Roman', serif" font-size="78" font-weight="700">Claude executes.</text>
  <text x="218" y="414" fill="#52606D" font-family="'Helvetica Neue', Arial, sans-serif" font-size="27" font-weight="500">A visible Ralph-style workflow for planning, worker dispatch,</text>
  <text x="218" y="452" fill="#52606D" font-family="'Helvetica Neue', Arial, sans-serif" font-size="27" font-weight="500">review, rework, merge, and final acceptance.</text>
  <g>
    <rect x="218" y="512" width="270" height="126" rx="16" fill="#111827"/>
    <text x="246" y="552" fill="#F7CB5D" font-family="'Helvetica Neue', Arial, sans-serif" font-size="15" font-weight="800" letter-spacing="2">VISIBLE COMMAND</text>
    <text x="246" y="604" fill="#FFFFFF" font-family="Georgia, 'Times New Roman', serif" font-size="42" font-weight="700">Codex</text>
  </g>
  <path d="M512 575H604" stroke="#111827" stroke-width="5" stroke-linecap="round"/>
  <path d="M604 575L582 559V591L604 575Z" fill="#111827"/>
  <g>
    <rect x="638" y="512" width="270" height="126" rx="16" fill="#FFFDF7" stroke="#D9CEBB" stroke-width="2"/>
    <text x="666" y="552" fill="#9D4C2D" font-family="'Helvetica Neue', Arial, sans-serif" font-size="15" font-weight="800" letter-spacing="2">RUNTIME RAIL</text>
    <text x="666" y="604" fill="#111827" font-family="Georgia, 'Times New Roman', serif" font-size="42" font-weight="700">Ralph</text>
  </g>
  <path d="M932 575H1024" stroke="#111827" stroke-width="5" stroke-linecap="round"/>
  <path d="M1024 575L1002 559V591L1024 575Z" fill="#111827"/>
  <g>
    <rect x="1058" y="512" width="270" height="126" rx="16" fill="#183D3A"/>
    <text x="1086" y="552" fill="#7BE0CD" font-family="'Helvetica Neue', Arial, sans-serif" font-size="15" font-weight="800" letter-spacing="2">TERMINAL WORKER</text>
    <text x="1086" y="604" fill="#FFFFFF" font-family="Georgia, 'Times New Roman', serif" font-size="42" font-weight="700">Claude</text>
  </g>
  <g>
    <rect x="218" y="686" width="1110" height="52" rx="26" fill="#111827"/>
    <text x="252" y="721" fill="#F8F0DF" font-family="'Helvetica Neue', Arial, sans-serif" font-size="22" font-weight="600">Deep interview -> task DAG -> visible workers -> Codex review -> rework loop -> final audit</text>
  </g>
</svg>
